PathFileType	4	(X/Y/Z)	F:\MotionCapture\20160217\3\Generated_files\EMG_Fprce_test03-Dynamic.trc
DataRate	CameraRate	NumFrames	NumMarkers	Units	OrigDataRate	OrigDataStartFrame	OrigNumFrames
120.00	120.00	       4	39	mm	120.00	1	       766
Frame#	Time	Top.Head			Front.Head			Rear.Head			R.Shoulder			R.Offset			R.Elbow			R.Wrist			L.Shoulder			L.Elbow			L.Wrist			R.ASIS			L.ASIS			V.Sacral			R.Thigh			R.Knee			R.Shank			R.Ankle			R.Heel			R.Toe			L.Thigh			L.Knee			L.Shank			L.Ankle			L.Heel			L.Toe			R1			R2			R3			R4			R5			R6			R7			L1			L2			L3			L4			L5			L6			L7			V_Mid_ASIS			V_Pelvis_Origin			V_R.Hip_JC			V_L.Hip_JC			V_R.Knee_JC			V_L.Knee_JC			V_R.Ankle_JC			V_L.Ankle_JC			V_Mid_Hip			V_Mid_Shoulder			V_R.Hand			V_L.Hand			V_R.Toe_Offset_Static			V_L.Toe_Offset_Static			V_R.Toe_Offset			V_L.Toe_Offset			
		X1	Y1	Z1	X2	Y2	Z2	X3	Y3	Z3	X4	Y4	Z4	X5	Y5	Z5	X6	Y6	Z6	X7	Y7	Z7	X8	Y8	Z8	X9	Y9	Z9	X10	Y10	Z10	X11	Y11	Z11	X12	Y12	Z12	X13	Y13	Z13	X14	Y14	Z14	X15	Y15	Z15	X16	Y16	Z16	X17	Y17	Z17	X18	Y18	Z18	X19	Y19	Z19	X20	Y20	Z20	X21	Y21	Z21	X22	Y22	Z22	X23	Y23	Z23	X24	Y24	Z24	X25	Y25	Z25	X26	Y26	Z26	X27	Y27	Z27	X28	Y28	Z28	X29	Y29	Z29	X30	Y30	Z30	X31	Y31	Z31	X32	Y32	Z32	X33	Y33	Z33	X34	Y34	Z34	X35	Y35	Z35	X36	Y36	Z36	X37	Y37	Z37	X38	Y38	Z38	X39	Y39	Z39	

1	0.000	2493.52344	118.53698	1739.78589	2371.23584	118.98206	1671.62476	2592.16113	108.52513	1657.90161	2521.54614	309.09152	1425.83679	2640.04175	34.63832	1285.24841	2547.05957	409.22360	1099.58521	2374.52783	384.74451	900.88446	2483.07886	-100.00613	1432.97217	2505.05859	-204.83783	1112.05200	2408.94946	-183.85445	872.85602	2438.91553	257.04953	956.38751	2416.77246	-33.01989	956.13757	2651.92261	93.97414	954.59753	2414.80786	220.31502	578.36334	2490.43945	256.59134	473.77017	2509.99121	188.21046	238.51419	2585.21021	254.96268	79.66533	2646.90479	188.42390	50.15947	2439.98389	254.32855	46.82163	2386.08301	2.46388	630.70526	2481.94531	-55.70237	475.89417	2472.85059	14.35553	333.64883	2549.23877	-61.63208	73.30537	2611.85010	-5.48806	51.94826	2405.32544	-53.22988	47.14274	2389.80884	239.34521	43.24228	2430.72339	216.92351	52.01280	2525.34985	171.13904	58.19200	2598.36401	162.79233	47.13145	2622.53735	234.66959	53.22602	2548.68652	270.28735	44.03135	2484.07813	294.09702	42.69791	2357.16968	-26.85695	40.40238	2395.41309	-13.63374	50.85623	2490.23047	27.77477	53.40585	2573.58887	27.06099	50.64549	2585.96509	-45.42461	53.56250	2511.32129	-75.12420	41.07686	2446.58789	-86.57475	44.83984	
2	0.008	2493.05737	118.32754	1739.91699	2370.69678	118.96866	1671.65344	2591.57104	108.27061	1657.96729	2520.83130	309.10434	1426.08716	2639.72070	34.70314	1285.35413	2546.38818	409.19727	1100.00317	2374.82495	385.07779	900.43127	2482.76514	-100.07584	1432.99072	2504.58545	-205.01596	1112.13770	2408.68115	-184.45988	873.13989	2438.04834	256.92566	956.45868	2416.66016	-33.01866	956.14514	2651.54980	94.14867	954.66522	2414.88672	220.23546	578.33594	2490.54834	256.52240	473.82675	2510.29395	188.20561	238.51781	2585.22095	254.99797	79.67496	2646.90649	188.41260	50.17931	2439.91650	254.40955	46.79956	2385.79468	2.43613	630.74335	2481.86743	-55.65371	475.90015	2472.66992	14.33729	333.63382	2549.01709	-61.55472	73.26999	2611.85986	-5.45228	52.00248	2405.22949	-53.19054	47.14048	2389.72754	239.31670	43.20979	2430.79028	216.95859	52.09014	2525.45068	171.17139	58.21126	2598.37256	162.74886	47.19810	2622.61157	234.71724	53.27474	2548.56299	270.59473	43.99143	2484.09692	294.15924	42.73503	2357.21362	-26.83966	40.39619	2395.45117	-13.57829	50.91208	2490.20654	27.81767	53.41196	2573.38623	26.47404	50.49092	2585.95581	-45.35403	53.53900	2511.33618	-75.06130	41.06277	2446.58154	-86.60059	44.87071	
3	0.017	2492.56396	118.15994	1739.94263	2370.32446	118.96067	1671.62048	2591.18164	107.94030	1657.99854	2519.93848	309.09116	1426.19153	2639.45093	34.70348	1285.40552	2545.61719	409.16608	1099.80371	2375.36182	385.56509	900.06360	2482.53589	-100.12100	1432.97180	2504.10083	-205.13887	1112.15320	2407.92944	-184.90517	873.25720	2436.74927	256.85818	956.47510	2416.65039	-33.13998	956.16376	2651.13623	94.40045	954.70093	2415.00684	220.28519	578.18481	2490.72534	256.44501	473.84824	2510.32739	188.21480	238.59308	2585.28638	255.03308	79.80437	2646.92847	188.43803	50.17796	2439.77490	254.02962	46.73045	2385.66187	2.34661	630.66718	2481.87939	-55.86522	475.95493	2472.50977	14.38097	333.64111	2548.84448	-61.58648	73.25433	2611.86353	-5.45244	51.98360	2405.29248	-53.23895	47.21000	2389.77588	239.24310	43.17156	2430.84473	216.92647	52.16188	2525.16699	171.54544	58.60822	2598.49487	163.14641	47.30273	2622.65747	234.79175	53.32093	2548.62524	270.55563	43.96583	2484.10620	294.16235	42.71759	2357.27417	-26.83360	40.39643	2395.51587	-13.64074	50.96924	2490.26440	27.69033	53.53235	2573.44604	26.49083	50.55821	2585.92725	-45.31188	53.54267	2511.42236	-75.09924	41.20659	2446.57373	-86.55249	44.85089	
4	0.025	2491.59204	117.66505	1740.00549	2370.99780	119.29258	1671.60779	2591.02612	107.87785	1658.14697	2519.11401	308.87631	1426.29480	2639.12842	34.70636	1285.39526	2544.52979	408.78430	1099.49304	2375.53174	385.74728	899.47540	2482.31665	-100.21188	1432.99548	2503.73193	-205.33041	1112.26221	2407.39673	-185.24182	873.35565	2436.42139	256.67975	956.49969	2416.60767	-33.16042	956.12469	2650.75757	94.63362	954.78632	2414.95679	220.20573	578.03064	2490.90283	256.40057	473.88730	2510.93750	188.03989	238.42838	2585.22021	255.04701	79.77186	2646.94556	188.45100	50.18731	2440.01025	254.35524	46.82257	2385.41919	2.28341	630.67694	2481.63867	-55.73494	475.85229	2472.10840	14.45700	333.75577	2547.98486	-60.74904	71.95853	2611.87305	-5.41017	52.00352	2405.32642	-53.36259	47.26921	2389.80518	239.27699	43.26444	2430.80054	216.98103	52.14975	2525.43872	171.32957	58.41906	2598.47168	162.82135	47.23457	2621.96924	234.72269	52.00991	2548.62744	270.60437	44.02338	2484.12988	294.16122	42.75877	2357.26123	-26.85852	40.40451	2395.57568	-13.66013	51.03017	2490.16895	27.73272	53.64639	2573.47974	26.52565	50.65235	2585.94165	-45.25460	53.52926	2511.40991	-75.15885	41.21199	2446.49805	-86.59233	44.95591	
